<svg width="96" height="96" xmlns="http://www.w3.org/2000/svg" xmlns:xlink="http://www.w3.org/1999/xlink" xml:space="preserve" overflow="hidden"><g transform="translate(-776 -164)"><path d="M838.618 217.72C842.926 219.266 847.003 221.028 850.378 223.789 851.995 225.05 852.956 226.973 852.995 229.023L854.751 243.417C854.893 244.505 854.414 245.581 853.512 246.204 851.792 247.316 849.942 248.213 848.004 248.876L848.004 250.985C850.338 250.236 852.565 249.186 854.628 247.863 856.154 246.822 856.968 245.014 856.737 243.182L854.994 228.93C854.93 226.306 853.695 223.847 851.628 222.229 848.001 219.261 843.693 217.412 839.163 215.793L834.241 213.773C833.489 213.467 832.998 212.735 833 211.923L833 208.975C836.774 206.152 838.998 201.716 839.002 197.002L839.002 194.104C839.52 194.317 840.073 194.433 840.633 194.445 841.185 194.445 841.633 193.997 841.633 193.445 841.633 193.337 841.615 193.231 841.582 193.129L840.569 190.089C840.127 188.701 839.773 187.287 839.51 185.855 838.524 181.02 835.344 176.919 830.906 174.761 830.194 174.39 829.334 174.454 828.684 174.925L828.383 174.477C827.973 173.844 827.325 173.403 826.586 173.255 818.845 171.8 811.381 176.714 808.837 184.498 808.401 185.855 808.179 187.272 808.177 188.698L808.168 190.192C808.161 191.591 807.873 192.973 807.32 194.258L805.458 198.606C805.24 199.114 805.475 199.702 805.983 199.919 806.107 199.973 806.242 200 806.377 200 806.455 200 806.532 199.991 806.608 199.973 806.776 199.933 807.727 199.703 809.185 199.289 809.786 203.15 811.871 206.623 814.995 208.969L814.995 211.923C814.997 212.735 814.506 213.467 813.754 213.773L808.799 215.807C804.283 217.423 799.991 219.267 796.388 222.215 794.312 223.835 793.071 226.298 793.005 228.93L791.263 243.189C791.034 245.02 791.849 246.824 793.373 247.864 795.439 249.187 797.668 250.237 800.003 250.987L800.003 248.878C798.063 248.215 796.212 247.317 794.489 246.204 793.588 245.583 793.11 244.51 793.249 243.424L794.996 229.124 795.003 229.024C795.044 226.967 796.012 225.039 797.637 223.777 800.998 221.027 805.07 219.268 809.377 217.723L811.457 216.993C814.162 218.859 818.89 220.003 824 220.003 829.108 220.003 833.836 218.859 836.541 216.993ZM809.159 195.046C809.817 193.517 810.16 191.87 810.169 190.205L810.178 188.711C810.178 187.492 810.367 186.28 810.739 185.119 812.716 179.066 817.999 175 823.884 175 824.667 175.001 825.448 175.075 826.217 175.221 826.429 175.274 826.61 175.408 826.724 175.594L827.616 176.918C827.924 177.376 828.546 177.497 829.004 177.189 829.019 177.179 829.034 177.168 829.049 177.157L829.854 176.548C829.886 176.521 829.93 176.513 829.97 176.528 833.886 178.389 836.695 181.989 837.547 186.24L837.548 186.24C837.827 187.756 838.202 189.253 838.671 190.721L839.081 191.95C836.965 190.752 834.474 187.636 833.141 185.51 832.967 185.233 832.67 185.059 832.344 185.042 832.018 185.023 831.703 185.167 831.504 185.427 826.501 191.858 813.143 196.095 808.104 197.507ZM811.129 198.713C817.01 196.905 827.103 193.181 832.196 187.695 833.532 189.674 835.151 191.447 837.002 192.955L837.002 197.002C837.006 204.178 831.193 209.999 824.017 210.003 817.497 210.007 811.983 205.177 811.129 198.713ZM824.001 218.002C820.453 218.09 816.928 217.394 813.679 215.965L814.513 215.623C816.017 215.01 816.998 213.547 816.995 211.923L816.995 210.245C821.369 212.583 826.621 212.589 831 210.26L831 211.923C830.997 213.547 831.978 215.01 833.481 215.623L834.318 215.967C831.07 217.395 827.548 218.09 824.001 218.002Z" fill="#FFFFFF"/><path d="M846.004 229.54C845.998 227.579 844.404 225.995 842.444 226 842.441 226 842.437 226 842.434 226L805.544 226C803.59 226.002 802.006 227.586 802.004 229.54L802.004 252.19 795.004 252.19 795.004 254.464C795.017 256.413 796.595 257.989 798.544 258L849.468 258C851.417 257.987 852.993 256.409 853.004 254.46L853.004 252.19 846.004 252.19ZM851.004 254.19 851.004 254.456C850.999 255.305 850.313 255.993 849.464 256L798.548 256C797.699 255.995 797.011 255.309 797.004 254.46L797.004 254.19 804.004 254.19 804.004 229.54C804.005 228.69 804.694 228.001 805.544 228L842.464 228C843.314 228.001 844.003 228.69 844.004 229.54L844.004 254.19Z" fill="#FFFFFF"/><path d="M817.416 236.03 811.806 241.64 817.416 247.25 818.826 245.84 814.636 241.64 818.826 237.44 817.416 236.03Z" fill="#FFFFFF"/><path d="M829.146 237.44 833.336 241.64 829.146 245.84 830.556 247.25 836.166 241.64 830.556 236.03 829.146 237.44Z" fill="#FFFFFF"/><path d="M820.706 247.18 822.556 247.95 827.236 236.63 825.396 235.86 820.706 247.18Z" fill="#FFFFFF"/></g></svg>