<svg width="192" height="192" xmlns="http://www.w3.org/2000/svg" xmlns:xlink="http://www.w3.org/1999/xlink" xml:space="preserve" overflow="hidden"><g transform="translate(-592 -216)"><path d="M636.18 322.1C636 320.74 636 319.38 636 318 636.002 297.898 647.589 279.597 665.76 271 664.732 268.452 664.157 265.745 664.06 263 642.168 272.526 628.007 294.125 628 318 628 320.04 628.1 322.04 628.3 324 630.798 322.918 633.464 322.275 636.18 322.1Z" fill="#FFFFFF"/><path d="M740 318C740 319.38 740 320.74 739.82 322 742.542 322.207 745.208 322.884 747.7 324 747.9 322 748 320 748 318 748.004 294.139 733.869 272.544 712 263 711.903 265.745 711.328 268.452 710.3 271 728.447 279.615 740.009 297.912 740 318Z" fill="#FFFFFF"/><path d="M718.56 360C700.359 373.306 675.641 373.306 657.44 360 655.849 362.207 653.895 364.128 651.66 365.68 673.112 382.077 702.888 382.077 724.34 365.68 722.105 364.128 720.151 362.207 718.56 360Z" fill="#FFFFFF"/><path d="M704 262C704 270.837 696.837 278 688 278 679.163 278 672 270.837 672 262 672 253.163 679.163 246 688 246 696.837 246 704 253.163 704 262Z" fill="#FFFFFF"/><path d="M754 346C754 354.837 746.837 362 738 362 729.163 362 722 354.837 722 346 722 337.163 729.163 330 738 330 746.837 330 754 337.163 754 346Z" fill="#FFFFFF"/><path d="M654 346C654 354.837 646.837 362 638 362 629.163 362 622 354.837 622 346 622 337.163 629.163 330 638 330 646.837 330 654 337.163 654 346Z" fill="#FFFFFF"/></g></svg>