<svg width="96" height="96" xmlns="http://www.w3.org/2000/svg" xmlns:xlink="http://www.w3.org/1999/xlink" xml:space="preserve" overflow="hidden"><g transform="translate(-604 -116)"><path d="M681 195 681 135C681 129.154 666.059 126 652 126 637.941 126 623 129.154 623 135L623 195C623 200.846 637.941 204 652 204 666.059 204 681 200.846 681 195ZM652 128C667.453 128 679 131.7 679 135 679 138.3 667.453 142 652 142 636.547 142 625 138.3 625 135 625 131.7 636.547 128 652 128ZM625 138.46C629.529 142.08 641.033 144 652 144 662.967 144 674.471 142.08 679 138.46L679 155C679 158.3 667.453 162 652 162 636.547 162 625 158.3 625 155ZM625 158.46C629.529 162.08 641.033 164 652 164 662.967 164 674.471 162.08 679 158.46L679 175C679 178.3 667.453 182 652 182 636.547 182 625 178.3 625 175ZM625 195 625 178.46C629.529 182.08 641.033 184 652 184 662.967 184 674.471 182.08 679 178.46L679 195C679 198.3 667.453 202 652 202 636.547 202 625 198.3 625 195Z" fill="#FFFFFF"/><path d="M674 152C674 153.105 673.105 154 672 154 670.895 154 670 153.105 670 152 670 150.895 670.895 150 672 150 673.105 150 674 150.895 674 152Z" fill="#FFFFFF"/><path d="M674 172C674 173.105 673.105 174 672 174 670.895 174 670 173.105 670 172 670 170.895 670.895 170 672 170 673.105 170 674 170.895 674 172Z" fill="#FFFFFF"/><path d="M674 192C674 193.105 673.105 194 672 194 670.895 194 670 193.105 670 192 670 190.895 670.895 190 672 190 673.105 190 674 190.895 674 192Z" fill="#FFFFFF"/></g></svg>