<svg width="96" height="96" xmlns="http://www.w3.org/2000/svg" xmlns:xlink="http://www.w3.org/1999/xlink" xml:space="preserve" overflow="hidden"><g transform="translate(-592 -312)"><path d="M673.4 333.908 673.014 333.908C672.959 330.91 671.519 328.107 669.114 326.317L669.053 326.271 668.988 326.23C667.393 325.182 665.529 324.617 663.621 324.605 662.618 324.599 661.62 324.747 660.662 325.046 658.763 321.391 654.981 319.104 650.862 319.119 650.032 319.138 649.206 319.226 648.391 319.384L648.332 319.394 648.269 319.408C643.259 320.555 639.697 325 639.67 330.14 639.67 330.194 639.67 330.307 639.67 330.307 639.228 330.231 638.779 330.198 638.331 330.207 635.39 330.213 632.627 331.617 630.887 333.988 628.828 336.77 628.419 340.443 629.814 343.61L629.837 343.663 629.863 343.716C631.401 346.744 634.413 348.746 637.8 348.992L637.886 349 673.291 349C677.414 348.957 680.792 345.712 681 341.594L681 341.554 681 341.514C681 337.315 677.599 333.911 673.4 333.908ZM673.275 347 637.975 347C635.284 346.808 632.888 345.226 631.654 342.826 630.544 340.316 630.862 337.403 632.489 335.192 633.854 333.328 636.023 332.222 638.333 332.211 638.742 332.212 639.151 332.24 639.556 332.296L641.656 332.686C641.661 332.687 641.667 332.684 641.668 332.678 641.668 332.677 641.668 332.677 641.668 332.676L641.668 330.3C641.622 326.036 644.55 322.315 648.705 321.355 649.413 321.217 650.131 321.137 650.852 321.117 654.29 321.1 657.437 323.044 658.962 326.126L659.674 327.549C659.677 327.552 659.683 327.552 659.686 327.549L661.228 326.956C662 326.712 662.805 326.591 663.614 326.598 665.142 326.611 666.633 327.067 667.907 327.91 669.836 329.343 670.984 331.597 671.009 334L671.009 335.9C671.009 335.905 671.013 335.91 671.019 335.91L673.394 335.91C676.487 335.907 678.997 338.411 679 341.504 679 341.507 679 341.511 679 341.514 678.853 344.574 676.338 346.984 673.275 347Z" fill="#FFFFFF"/><path d="M642 357 604 357C601.791 357 600 358.791 600 361L600 386C600 388.209 601.791 390 604 390L619 390 619 396 613 396 613 398 633 398 633 396 627 396 627 390 642 390C644.209 390 646 388.209 646 386L646 361C646 358.791 644.209 357 642 357ZM625 396 621 396 621 390 625 390ZM644 386C644 387.105 643.105 388 642 388L604 388C602.895 388 602 387.105 602 386L602 361C602 359.895 602.895 359 604 359L642 359C643.105 359 644 359.895 644 361Z" fill="#FFFFFF"/><path d="M604 386 642 386 642 361 604 361ZM606 363 640 363 640 384 606 384Z" fill="#FFFFFF"/><path d="M610.958 352.592C610.375 351.292 610.052 349.89 610.007 348.466 609.951 342.19 614.994 337.056 621.27 337 621.337 336.999 621.405 336.999 621.472 337L621.562 337C621.575 337 621.578 337.008 621.569 337.017L616.293 342.293 617.707 343.707 624.414 337 617.707 330.293 616.293 331.707 619.651 335.065C619.659 335.073 619.651 335.081 619.645 335.082 612.464 335.876 607.286 342.341 608.079 349.522 608.227 350.864 608.583 352.175 609.132 353.408Z" fill="#FFFFFF"/><path d="M664.042 354.408C664.625 355.708 664.948 357.11 664.993 358.534 665.049 364.81 660.006 369.944 653.73 370 653.663 370.001 653.595 370.001 653.528 370L653.438 370C653.425 370 653.422 369.992 653.431 369.983L658.707 364.707 657.293 363.293 650.586 370 657.293 376.707 658.707 375.293 655.349 371.935C655.341 371.927 655.349 371.919 655.355 371.918 662.536 371.124 667.714 364.659 666.921 357.478 666.773 356.136 666.417 354.825 665.868 353.592Z" fill="#FFFFFF"/></g></svg>