<svg width="249" height="249" xmlns="http://www.w3.org/2000/svg" xmlns:xlink="http://www.w3.org/1999/xlink" xml:space="preserve" overflow="hidden"><g transform="translate(-439 -312)"><path d="M597.452 455.315 597.452 439.094 592.265 439.094 592.265 460.5 597.452 455.315Z" fill="#FFFFFF"/><path d="M607.832 444.935 607.832 402.781C607.832 401.349 606.671 400.188 605.239 400.188 603.806 400.188 602.645 401.349 602.645 402.781L602.645 450.122Z" fill="#FFFFFF"/><path d="M587.082 465.682 587.082 402.781C587.082 401.349 585.921 400.188 584.489 400.188 583.056 400.188 581.895 401.349 581.895 402.781L581.895 470.87Z" fill="#FFFFFF"/><path d="M551.605 451.432 551.605 402.781C551.605 401.349 550.444 400.188 549.011 400.188 547.579 400.188 546.418 401.349 546.418 402.781L546.418 446.245Z" fill="#FFFFFF"/><path d="M530.855 441.503 530.855 402.781C530.855 401.349 529.694 400.188 528.261 400.188 526.829 400.188 525.668 401.349 525.668 402.781L525.668 446.691Z" fill="#FFFFFF"/><path d="M456.23 439.659C457.51 440.303 459.069 439.787 459.713 438.507 460.352 437.235 459.847 435.685 458.58 435.035 457.202 434.238 456.474 432.66 456.765 431.095L463.267 394.149C463.411 393.665 463.679 393.226 464.045 392.878 466.797 390.81 469.916 389.283 473.237 388.378 475.937 387.654 478.715 387.265 481.509 387.219 484.209 387.245 486.893 387.632 489.49 388.368 492.83 389.271 495.968 390.803 498.734 392.881 499.102 393.157 499.363 393.554 499.471 394.001L507.553 436.98C507.82 438.387 509.177 439.312 510.584 439.045 511.632 438.847 512.451 438.027 512.65 436.98L520.69 394.154C520.786 393.649 521.063 393.197 521.468 392.881 524.241 390.802 527.383 389.268 530.728 388.363 533.323 387.63 536.003 387.245 538.699 387.219 541.478 387.264 544.241 387.65 546.926 388.368 550.301 389.285 553.47 390.837 556.263 392.941 556.533 393.231 556.749 393.566 556.901 393.931L563.759 436.91C563.958 438.154 565.023 439.076 566.283 439.094 567.534 439.077 568.608 438.201 568.877 436.98L576.917 394.154C577.012 393.649 577.289 393.196 577.696 392.881 580.468 390.801 583.61 389.268 586.955 388.363 589.549 387.63 592.228 387.245 594.923 387.219 597.703 387.264 600.467 387.65 603.153 388.368 606.528 389.285 609.697 390.837 612.491 392.941 612.761 393.233 612.977 393.571 613.129 393.939L619.525 433.25 624.036 428.719 618.2 392.881C617.784 391.235 616.839 389.773 615.51 388.718 612.199 386.238 608.447 384.41 604.453 383.333 601.342 382.511 598.141 382.074 594.923 382.031 591.772 382.058 588.638 382.503 585.604 383.354 581.623 384.432 577.883 386.257 574.583 388.731 573.192 389.799 572.229 391.329 571.865 393.044L566.561 421.231C566.545 421.311 566.522 421.311 566.509 421.231L561.972 392.891C561.557 391.246 560.612 389.783 559.283 388.728 555.972 386.248 552.22 384.42 548.225 383.344 545.115 382.518 541.916 382.077 538.699 382.031 535.547 382.057 532.413 382.502 529.379 383.354 525.401 384.433 521.665 386.257 518.369 388.731 516.976 389.798 516.011 391.328 515.648 393.044L510.128 422.336C510.128 422.411 510.092 422.411 510.077 422.336L504.539 392.896C504.16 391.234 503.207 389.759 501.847 388.731 498.553 386.258 494.818 384.434 490.841 383.359 487.802 382.504 484.661 382.057 481.504 382.031 478.273 382.078 475.06 382.523 471.938 383.354 468.005 384.414 464.309 386.209 461.044 388.645 459.611 389.748 458.603 391.312 458.191 393.073L451.647 430.213C450.971 434.021 452.82 437.833 456.23 439.659Z" fill="#FFFFFF"/><path d="M538.631 376.844C531.469 376.844 525.662 371.037 525.662 363.875 525.662 356.713 531.469 350.906 538.631 350.906 545.794 350.906 551.6 356.713 551.6 363.875 551.591 371.034 545.79 376.835 538.631 376.844ZM538.631 356.094C534.334 356.094 530.85 359.577 530.85 363.875 530.85 368.173 534.334 371.656 538.631 371.656 542.929 371.656 546.412 368.173 546.412 363.875 546.412 359.577 542.929 356.094 538.631 356.094Z" fill="#FFFFFF"/><path d="M481.569 376.844C474.406 376.844 468.6 371.037 468.6 363.875 468.6 356.713 474.406 350.906 481.569 350.906 488.731 350.906 494.537 356.713 494.537 363.875 494.529 371.034 488.728 376.835 481.569 376.844ZM481.569 356.094C477.271 356.094 473.787 359.577 473.787 363.875 473.787 368.173 477.271 371.656 481.569 371.656 485.866 371.656 489.35 368.173 489.35 363.875 489.35 359.577 485.866 356.094 481.569 356.094Z" fill="#FFFFFF"/><path d="M594.858 376.844C587.696 376.844 581.89 371.037 581.89 363.875 581.89 356.713 587.696 350.906 594.858 350.906 602.021 350.906 607.827 356.713 607.827 363.875 607.819 371.034 602.017 376.835 594.858 376.844ZM594.858 356.094C590.561 356.094 587.077 359.577 587.077 363.875 587.077 368.173 590.561 371.656 594.858 371.656 599.156 371.656 602.64 368.173 602.64 363.875 602.64 359.577 599.156 356.094 594.858 356.094Z" fill="#FFFFFF"/><path d="M468.608 457.294 468.608 496.213 476.148 496.213 484.162 488.196 484.162 457.294 489.35 457.294 489.35 483.001 494.537 477.813 494.537 457.294 504.435 457.294 494.545 421.653 494.545 402.781C494.545 401.349 493.384 400.188 491.951 400.188 490.519 400.188 489.358 401.349 489.358 402.781L489.358 422.009 497.621 452.096 465.534 452.096 473.795 422.351 473.795 402.771C473.795 401.338 472.634 400.177 471.201 400.177 469.769 400.177 468.608 401.338 468.608 402.771L468.608 421.643 458.712 457.294ZM473.795 457.294 478.983 457.294 478.983 491.026 473.795 491.026Z" fill="#FFFFFF"/><path d="M636.125 395C634.693 395 633.531 396.161 633.531 397.594 633.531 399.026 634.693 400.188 636.125 400.188L663.52 400.188C663.554 400.188 663.562 400.208 663.538 400.232L576.469 487.301 536.266 447.098 460.51 522.854C459.48 523.849 459.451 525.491 460.446 526.521 461.441 527.552 463.083 527.58 464.114 526.585 464.135 526.564 464.157 526.543 464.178 526.521L536.266 454.433 576.469 494.636 667.206 403.899C667.229 403.876 667.25 403.884 667.25 403.917L667.25 431.312C667.25 432.745 668.411 433.906 669.844 433.906 671.276 433.906 672.438 432.745 672.438 431.312L672.438 395Z" fill="#FFFFFF"/></g></svg>