<svg width="181" height="181" xmlns="http://www.w3.org/2000/svg" xmlns:xlink="http://www.w3.org/1999/xlink" xml:space="preserve" overflow="hidden"><g transform="translate(-592 -227)"><path d="M629.708 325.042 682.5 325.042 682.5 332.583 629.708 332.583Z" fill="#FFFFFF"/><path d="M629.708 340.125 682.5 340.125 682.5 347.667 629.708 347.667Z" fill="#FFFFFF"/><path d="M638.004 306.753C638.193 306.753 658.178 299.589 682.5 299.589 706.822 299.589 726.807 306.753 726.996 306.753 727.75 306.942 728.316 307.13 729.07 307.13 731.709 307.13 734.16 305.433 734.915 302.605 736.046 299.211 734.349 295.441 730.955 294.309 730.201 293.932 708.896 286.391 682.5 286.391 656.104 286.391 634.799 293.932 633.856 294.309 630.651 295.441 628.766 299.211 629.897 302.605 631.217 306.188 634.799 307.884 638.004 306.753" fill="#FFFFFF"/><path d="M607.083 370.292 757.917 370.292 757.917 264.708 607.083 264.708 607.083 370.292ZM746.604 358.979 618.396 358.979 618.396 276.021 746.604 276.021 746.604 358.979Z" fill="#FFFFFF"/><path d="M730.578 331.264 731.332 326.173 726.43 327.116 724.545 322.214 720.774 325.607 716.815 322.214 715.118 327.116 710.027 326.173 710.97 331.264 706.068 332.96 709.461 336.92 706.068 340.691 710.97 342.576 710.027 347.478 715.118 346.724 716.815 351.438 720.774 348.232 724.545 351.438 726.43 346.724 731.332 347.478 730.578 342.576 735.292 340.691 732.086 336.92 735.292 332.96Z" fill="#FFFFFF"/></g></svg>