<svg width="246" height="246" xmlns="http://www.w3.org/2000/svg" xmlns:xlink="http://www.w3.org/1999/xlink" xml:space="preserve" overflow="hidden"><g transform="translate(-442 -312)"><path d="M657.25 360.688C658.665 360.688 659.812 359.54 659.812 358.125 659.812 356.71 658.665 355.562 657.25 355.562L567.562 355.562 567.562 345.312C567.562 343.897 566.415 342.75 565 342.75 563.585 342.75 562.438 343.897 562.438 345.312L562.438 355.562 472.75 355.562C471.335 355.562 470.188 356.71 470.188 358.125 470.188 359.54 471.335 360.688 472.75 360.688L483 360.688 483 465.75 472.75 465.75C471.335 465.75 470.188 466.897 470.188 468.312 470.188 469.728 471.335 470.875 472.75 470.875L558.814 470.875 513.22 516.47C512.236 517.488 512.265 519.11 513.283 520.093 514.276 521.052 515.85 521.052 516.843 520.093L562.438 474.498 562.438 527.25C562.438 528.665 563.585 529.812 565 529.812 566.415 529.812 567.562 528.665 567.562 527.25L567.562 474.498 613.157 520.093C614.175 521.076 615.797 521.048 616.78 520.03 617.74 519.037 617.74 517.463 616.78 516.47L571.186 470.875 657.25 470.875C658.665 470.875 659.812 469.728 659.812 468.312 659.812 466.897 658.665 465.75 657.25 465.75L647 465.75 647 360.688ZM641.875 465.75 488.125 465.75 488.125 360.688 641.875 360.688Z" fill="#FFFFFF"/><path d="M526.562 414.5C526.562 435.729 543.771 452.938 565 452.938 586.229 452.938 603.438 435.729 603.438 414.5 603.438 393.271 586.229 376.062 565 376.062 543.781 376.087 526.587 393.281 526.562 414.5ZM571.247 417.062 598.182 417.062C597.647 424.105 594.874 430.791 590.269 436.145L571.229 417.106C571.206 417.083 571.214 417.062 571.247 417.062ZM531.688 414.5C531.714 397.112 545.102 382.666 562.438 381.318L562.438 415.561 586.645 439.769C572.716 451.749 551.712 450.168 539.732 436.239 534.531 430.191 531.676 422.476 531.688 414.5ZM598.182 411.938 567.562 411.938 567.562 381.318C583.915 382.595 596.905 395.585 598.182 411.938Z" fill="#FFFFFF"/></g></svg>