<svg width="218" height="218" xmlns="http://www.w3.org/2000/svg" xmlns:xlink="http://www.w3.org/1999/xlink" xml:space="preserve" overflow="hidden"><g transform="translate(-470 -312)"><path d="M644.854 452.748 644.863 371.015 513.148 371.015 513.148 452.788ZM517.69 375.557 640.321 375.557 640.312 448.207 517.69 448.245Z" fill="#FFFFFF"/><path d="M506.336 368.74C506.339 366.233 508.37 364.202 510.877 364.199L647.134 364.199C649.641 364.202 651.672 366.233 651.676 368.74L651.676 461.875 656.217 461.875 656.217 368.74C656.212 363.726 652.148 359.662 647.134 359.657L510.877 359.657C505.863 359.662 501.799 363.726 501.794 368.74L501.794 461.875 506.336 461.875Z" fill="#FFFFFF"/><path d="M590.361 468.644 590.361 473.186 567.65 473.186 567.65 468.644 474.542 468.644 474.542 473.184C474.548 479.452 479.628 484.532 485.896 484.54L672.113 484.54C678.382 484.533 683.463 479.453 683.469 473.184L683.469 468.644ZM672.113 479.999 485.896 479.999C482.135 479.994 479.088 476.947 479.083 473.186L563.109 473.186C563.025 475.611 564.923 477.644 567.347 477.728 567.448 477.731 567.549 477.731 567.65 477.728L590.361 477.728C592.785 477.811 594.819 475.914 594.902 473.489 594.906 473.388 594.906 473.287 594.902 473.186L678.928 473.186C678.922 476.947 675.874 479.994 672.113 479.999Z" fill="#FFFFFF"/><path d="M579 382.396C562.696 382.396 549.479 395.613 549.479 411.917 549.479 428.221 562.696 441.438 579 441.438 595.304 441.438 608.521 428.221 608.521 411.917 608.502 395.62 595.296 382.414 579 382.396ZM603.864 409.646 595.874 409.646C595.56 401.508 592.171 393.792 586.391 388.055 596.041 391.064 602.933 399.581 603.864 409.646ZM576.729 389.721 576.729 409.646 566.679 409.646C567.255 401.082 571.06 393.614 576.729 389.721ZM576.729 414.188 576.729 434.115C571.066 430.216 567.26 422.722 566.681 414.188ZM581.271 434.111 581.271 414.188 591.319 414.188C590.74 422.713 586.931 430.21 581.271 434.111ZM581.271 409.646 581.271 389.724C586.931 393.625 590.74 401.121 591.319 409.646ZM571.567 388.067C565.797 393.803 562.423 401.516 562.126 409.646L554.136 409.646C555.065 399.597 561.938 391.089 571.567 388.067ZM554.136 414.188 562.126 414.188C562.436 422.324 565.822 430.039 571.6 435.776 561.955 432.764 555.067 424.249 554.136 414.188ZM586.394 435.778C592.172 430.04 595.56 422.325 595.874 414.188L603.864 414.188C602.933 424.251 596.042 432.768 586.394 435.778Z" fill="#FFFFFF"/></g></svg>