<svg width="149" height="149" xmlns="http://www.w3.org/2000/svg" xmlns:xlink="http://www.w3.org/1999/xlink" xml:space="preserve" overflow="hidden"><g transform="translate(-592 -259)"><path d="M661.689 371.371C660.912 371.371 659.981 371.216 659.36 370.595 658.119 369.508 657.964 367.491 659.05 366.249L665.103 359.265C666.19 358.023 668.207 357.868 669.449 358.954 670.691 360.041 670.846 362.058 669.759 363.3L663.706 370.284C663.241 370.905 662.465 371.216 661.689 371.371Z" fill="#FFFFFF"/><path d="M652.221 367.801C651.134 367.956 650.203 367.646 649.272 366.87 647.72 365.473 647.565 362.99 648.961 361.438L656.101 353.211C657.498 351.659 659.981 351.504 661.533 352.901 663.085 354.298 663.241 356.781 661.844 358.333L654.704 366.559C654.083 367.335 653.152 367.801 652.221 367.801Z" fill="#FFFFFF"/><path d="M642.443 362.058C641.201 362.214 639.959 361.748 639.028 360.972 637.166 359.265 636.855 356.316 638.562 354.453L645.702 346.227C647.409 344.365 650.358 344.054 652.221 345.761 654.083 347.469 654.394 350.418 652.686 352.28L645.547 360.506C644.771 361.438 643.529 362.058 642.443 362.058Z" fill="#FFFFFF"/><path d="M631.112 356.316C629.871 356.471 628.629 356.005 627.698 355.229 625.835 353.522 625.525 350.573 627.232 348.71L635.458 339.398C637.166 337.535 640.115 337.225 641.977 338.932 643.84 340.64 644.15 343.589 642.443 345.451L634.217 354.764C633.285 355.695 632.199 356.16 631.112 356.316Z" fill="#FFFFFF"/><path d="M599.14 322.17 611.091 329.465C612.487 330.396 614.505 329.93 615.281 328.378L629.716 304.476C630.647 303.079 630.181 301.061 628.629 300.285L616.833 292.991 599.14 322.17Z" fill="#FFFFFF"/><path d="M699.715 342.502 674.726 321.083 673.019 319.531 662.309 331.793C660.757 333.655 658.584 334.742 656.101 334.897 655.791 334.897 655.48 334.897 655.325 334.897 652.997 334.897 650.824 334.121 649.272 332.569 645.392 329.154 645.081 323.256 648.341 319.376L657.498 308.822C650.358 307.891 641.201 311.616 631.733 306.959L618.23 329.309 628.784 341.571 632.82 336.915C634.217 335.207 636.39 334.276 638.718 334.276L638.718 334.276C640.58 334.276 642.443 334.897 643.84 336.139 645.547 337.535 646.323 339.553 646.478 341.726 647.254 341.416 648.185 341.26 649.117 341.26 650.979 341.26 652.842 341.881 654.239 343.123 655.946 344.675 656.877 346.693 656.877 348.866 657.498 348.71 658.274 348.555 658.895 348.555L658.895 348.555C660.602 348.555 662.154 349.176 663.551 350.263 664.948 351.504 665.724 353.211 665.879 355.074 666.345 354.919 666.966 354.764 667.586 354.764L667.586 354.764C669.139 354.764 670.535 355.229 671.622 356.316 672.864 357.402 673.64 358.954 673.795 360.506 673.95 362.214 673.329 363.766 672.243 365.007L666.966 371.06 669.139 372.768C670.225 373.389 671.467 373.854 672.864 373.699 676.278 373.389 678.761 370.44 678.451 367.025 678.451 367.025 678.451 366.87 678.451 366.87 678.917 367.025 679.537 367.025 680.003 367.025 683.418 366.715 685.901 363.766 685.591 360.351 685.591 360.351 685.591 360.196 685.591 360.196 686.056 360.351 686.677 360.351 687.143 360.351 690.557 360.041 693.041 357.092 692.73 353.677 692.73 353.367 692.575 353.056 692.575 352.746 693.506 353.211 694.593 353.522 695.834 353.367 699.249 353.056 701.732 350.107 701.422 346.693 701.577 344.985 700.801 343.589 699.715 342.502Z" fill="#FFFFFF"/><path d="M733.86 322.17 721.909 329.465C720.513 330.396 718.495 329.93 717.719 328.378L703.284 304.476C702.353 303.079 702.819 301.061 704.371 300.285L716.322 292.991 733.86 322.17Z" fill="#FFFFFF"/><path d="M701.422 307.58C688.54 312.236 679.227 307.735 668.828 305.718 668.673 305.718 668.052 305.562 668.052 305.562 666.19 305.407 664.172 306.028 662.775 307.58L650.514 321.549C648.185 324.188 648.496 328.068 651.134 330.241 652.531 331.327 654.083 331.948 655.791 331.793 657.343 331.638 658.895 331.017 659.981 329.62 659.981 329.62 672.708 315.03 672.708 315.03L701.732 340.019 701.732 340.019 701.732 340.019C702.508 340.795 702.819 341.105 703.44 342.036L714.615 329.154 701.422 307.58Z" fill="#FFFFFF"/></g></svg>