<svg width="575" height="574" xmlns="http://www.w3.org/2000/svg" xmlns:xlink="http://www.w3.org/1999/xlink" xml:space="preserve" overflow="hidden"><g transform="translate(-134 -73)"><path d="M287 125.598C273.791 125.598 263.083 136.306 263.083 149.515 263.083 162.724 273.791 173.432 287 173.432 300.209 173.432 310.917 162.724 310.917 149.515 310.877 136.323 300.192 125.638 287 125.598ZM287 161.473C280.395 161.473 275.042 156.12 275.042 149.515 275.042 142.91 280.395 137.557 287 137.557 293.605 137.557 298.958 142.91 298.958 149.515 298.965 156.12 293.617 161.479 287.012 161.485 287.008 161.485 287.004 161.485 287 161.485Z" fill="#FFFFFF" transform="matrix(1.00174 0 0 1 134 73)"/><path d="M472.354 448.563 472.354 430.5 448.438 430.5 448.438 245.146 472.354 245.146 472.354 215.25 502.25 215.25 502.25 203.292 287 71.75 71.75 203.292 71.75 215.25 101.646 215.25 101.646 245.146 125.562 245.146 125.562 430.5 101.646 430.5 101.646 448.563 59.7917 478.459 59.7917 502.25 514.208 502.25 514.208 478.465ZM436.479 430.5 424.521 430.5 424.521 245.146 436.479 245.146ZM161.438 245.146 197.312 245.146 197.312 430.5 161.438 430.5ZM209.271 245.146 221.229 245.146 221.229 430.5 209.271 430.5ZM233.188 245.146 269.062 245.146 269.062 430.5 233.188 430.5ZM281.021 245.146 292.979 245.146 292.979 430.5 281.021 430.5ZM304.938 245.146 340.812 245.146 340.812 430.5 304.938 430.5ZM352.771 245.146 364.729 245.146 364.729 430.5 352.771 430.5ZM376.688 245.146 412.562 245.146 412.562 430.5 376.688 430.5ZM94.8655 203.178 287 85.7831 479.135 203.178C479.166 203.188 479.183 203.222 479.173 203.253 479.167 203.271 479.152 203.286 479.135 203.292L94.9013 203.292C94.8655 203.287 94.8397 203.254 94.8445 203.218 94.8469 203.203 94.8541 203.188 94.8655 203.178ZM113.604 215.25 460.396 215.25 460.396 233.188 113.604 233.188ZM137.521 245.146 149.479 245.146 149.479 430.5 137.521 430.5ZM113.604 454.716 113.604 442.458 460.396 442.458 460.396 454.716 465.4 458.303 468.342 460.408 105.658 460.408 108.606 458.303ZM502.25 490.292 71.75 490.292 71.75 484.623 88.9162 472.354 485.114 472.354 502.25 484.623Z" fill="#FFFFFF" transform="matrix(1.00174 0 0 1 134 73)"/></g></svg>