<svg width="159" height="159" xmlns="http://www.w3.org/2000/svg" xmlns:xlink="http://www.w3.org/1999/xlink" xml:space="preserve" overflow="hidden"><g transform="translate(-592 -249)"><path d="M714.562 335.042 731.291 318.314 741.062 328.086 741.062 301.586 714.562 301.586 724.334 311.358 707.938 327.755 679.781 355.911 654.938 331.067 603.428 382.577 610.384 389.533 654.938 344.98 679.781 369.823 714.562 335.042Z" fill="#FFFFFF"/><path d="M630.094 282.125C630.094 286.699 626.386 290.406 621.812 290.406 617.239 290.406 613.531 286.699 613.531 282.125 613.531 277.551 617.239 273.844 621.812 273.844 626.386 273.844 630.094 277.551 630.094 282.125Z" fill="#FFFFFF"/><path d="M701.594 324.707 703.25 323.051 707.043 319.258 702.439 298.555C702.298 297.822 701.898 297.163 701.312 296.7 699.329 295.143 697.086 293.949 694.688 293.172 690.361 291.693 685.665 291.693 681.338 293.172 678.94 293.951 676.698 295.145 674.713 296.7 674.14 297.174 673.743 297.828 673.587 298.555L671.5 308.261 671.5 308.261 669.33 298.555C669.178 297.822 668.774 297.165 668.188 296.7 666.204 295.143 663.961 293.949 661.562 293.172 654.763 290.977 647.317 292.299 641.688 296.7 641.114 297.174 640.718 297.828 640.561 298.555L638.375 307.946C638.375 307.946 638.375 307.946 638.375 307.946L636.222 298.555C636.057 297.823 635.648 297.169 635.062 296.7 633.078 295.145 630.835 293.951 628.438 293.172 624.111 291.693 619.415 291.693 615.088 293.172 612.692 293.955 610.45 295.148 608.463 296.7 607.89 297.174 607.493 297.828 607.337 298.555L602.07 322.604C601.598 324.456 602.717 326.341 604.57 326.813 604.614 326.824 604.659 326.834 604.703 326.844 604.885 326.86 605.068 326.86 605.25 326.844 606.834 326.881 608.222 325.791 608.562 324.243L613.531 302 613.531 302 613.531 313.759 608.562 338.438 613.531 338.438 613.531 363.099 620.156 356.474 620.156 338.438 623.469 338.438 623.469 353.162 630.094 346.537 630.094 338.438 635.062 338.438 630.094 313.776 630.094 302.182 630.094 302.182 635.062 323.813C635.209 325.531 636.65 326.85 638.375 326.844L638.375 326.844C639.922 326.833 641.256 325.754 641.588 324.243L641.688 323.531 646.524 302.282C646.524 302.282 646.524 302.282 646.524 302.282L646.524 330.057 650.184 326.38C652.77 323.791 656.965 323.789 659.553 326.375 659.555 326.377 659.557 326.378 659.558 326.38L663.219 329.908 663.219 302.298C663.219 302.298 663.219 302.298 663.219 302.298L668.188 324.26C668.534 325.801 669.921 326.882 671.5 326.844L671.5 326.844C673.053 326.841 674.396 325.76 674.73 324.243L679.698 302.282C679.698 302.282 679.698 302.282 679.698 302.282L679.698 346.503 679.698 346.503 686.323 339.878 686.323 328.5 689.636 328.5 689.636 336.632 696.261 330.007 696.261 302.298C696.261 302.298 696.261 302.298 696.261 302.298L701.478 324.724Z" fill="#FFFFFF"/><path d="M696.327 282.125C696.327 286.699 692.62 290.406 688.046 290.406 683.472 290.406 679.765 286.699 679.765 282.125 679.765 277.551 683.472 273.844 688.046 273.844 692.62 273.844 696.327 277.551 696.327 282.125Z" fill="#FFFFFF"/><path d="M663.152 282.125C663.152 286.699 659.445 290.406 654.871 290.406 650.298 290.406 646.59 286.699 646.59 282.125 646.59 277.551 650.298 273.844 654.871 273.844 659.445 273.844 663.152 277.551 663.152 282.125Z" fill="#FFFFFF"/></g></svg>