<svg width="96" height="96" xmlns="http://www.w3.org/2000/svg" xmlns:xlink="http://www.w3.org/1999/xlink" xml:space="preserve" overflow="hidden"><g transform="translate(-295 -399)"><path d="M369.5 437.411C370.209 436.178 370.779 434.87 371.2 433.511L375.6 431.311 375.6 426.311 371.2 424.111C370.832 422.749 370.295 421.439 369.6 420.211L371.2 415.511 367.6 411.911 362.9 413.511C361.673 412.812 360.362 412.271 359 411.9L356.8 407.5 351.8 407.5 349.6 411.9C348.238 412.267 346.928 412.805 345.7 413.5L341 411.9 337.4 415.5 339 420.2C338.305 421.428 337.768 422.738 337.4 424.1L333 426.3 333 431.3 337.4 433.5C337.768 434.862 338.306 436.172 339 437.4L337.4 442.1 340.9 445.6 345.6 444C346.828 444.695 348.138 445.232 349.5 445.6L351.7 450 356.7 450 358.9 445.6C360.262 445.232 361.572 444.695 362.8 444L367.5 445.6 371.1 442.1ZM367.606 438.055 368.8 441.56 366.985 443.325 363.445 442.119 362.581 441.825 361.792 442.285C360.709 442.897 359.553 443.369 358.351 443.69L357.505 443.932 357.111 444.719 355.464 448.019 352.939 448.019 351.292 444.719 350.898 443.932 350.052 443.69C348.85 443.369 347.693 442.897 346.61 442.285L345.822 441.825 344.958 442.119 341.436 443.319 339.696 441.579 340.896 438.056 341.19 437.192 340.73 436.404C340.119 435.32 339.649 434.163 339.33 432.961L339.088 432.115 338.302 431.722 335 430.073 335 427.544 338.3 425.9 339.086 425.506 339.328 424.66C339.647 423.458 340.117 422.302 340.728 421.218L341.188 420.429 340.894 419.566 339.694 416.042 341.534 414.202 345.056 415.402 345.92 415.702 346.708 415.241C347.792 414.631 348.948 414.16 350.15 413.841L351 413.585 351.394 412.798 353.041 409.498 355.569 409.498 357.216 412.798 357.61 413.585 358.455 413.827C359.657 414.146 360.814 414.616 361.897 415.227L362.686 415.688 363.55 415.388 367.071 414.188 368.911 416.028 367.711 419.552 367.417 420.415 367.877 421.204C368.489 422.287 368.961 423.444 369.282 424.646L369.523 425.492 370.31 425.886 373.61 427.534 373.61 430.063 370.31 431.711 369.545 432.094 369.293 432.912C368.917 434.127 368.408 435.297 367.776 436.4L367.316 437.188Z" fill="#FFFFFF"/><path d="M310.4 462.618 310.4 467.618 314.8 469.818C315.168 471.18 315.705 472.49 316.4 473.718L314.9 478.418 318.4 481.918 323.1 480.418C324.328 481.113 325.638 481.65 327 482.018L329.2 486.418 334.2 486.418 336.4 482.018C337.762 481.65 339.072 481.113 340.3 480.418L345 482.018 348.5 478.418 347 473.818C347.695 472.59 348.232 471.28 348.6 469.918L353 467.718 353 462.718 348.6 460.518C348.232 459.156 347.695 457.846 347 456.618L348.6 451.918 345 448.318 340.3 449.918C339.064 449.24 337.756 448.704 336.4 448.318L334.2 443.918 329.2 443.918 327 448.318C325.638 448.686 324.328 449.223 323.1 449.918L318.4 448.318 314.9 451.818 316.4 456.518C315.723 457.754 315.186 459.062 314.8 460.418ZM316.46 461.818 316.712 461C317.056 459.792 317.531 458.624 318.128 457.519L318.576 456.75 318.305 455.903 317.176 452.362 318.934 450.603 322.456 451.803 323.32 452.098 324.108 451.638C325.191 451.026 326.348 450.553 327.55 450.233L328.4 450 328.794 449.213 330.441 445.913 332.969 445.913 334.616 449.213 334.999 449.979 335.817 450.23C337.025 450.575 338.192 451.05 339.297 451.647L340.086 452.107 340.95 451.812 344.471 450.612 346.311 452.453 345.111 455.976 344.817 456.839 345.277 457.628C345.889 458.712 346.361 459.868 346.682 461.071L346.923 461.916 347.71 462.31 351 463.954 351 466.483 347.7 468.131 346.913 468.525 346.672 469.37C346.351 470.572 345.879 471.729 345.267 472.813L344.815 473.588 345.093 474.441 346.219 477.894 344.45 479.722 340.95 478.529 340.086 478.235 339.297 478.695C338.213 479.308 337.055 479.78 335.852 480.1L335.006 480.342 334.613 481.129 332.966 484.429 330.438 484.429 328.791 481.129 328.397 480.342 327.551 480.1C326.349 479.78 325.192 479.307 324.109 478.695L323.341 478.247 322.493 478.517 318.954 479.647 317.177 477.87 318.306 474.329 318.577 473.482 318.129 472.713C317.517 471.63 317.045 470.473 316.724 469.271L316.482 468.425 315.696 468.031 312.396 466.383 312.396 463.854 315.696 462.206Z" fill="#FFFFFF"/><path d="M354.3 421.306C350.158 421.306 346.8 424.664 346.8 428.806 346.8 432.948 350.158 436.306 354.3 436.306 358.442 436.306 361.8 432.948 361.8 428.806 361.769 424.677 358.429 421.337 354.3 421.306ZM354.3 434.306C351.264 434.302 348.804 431.842 348.8 428.806 348.84 425.785 351.279 423.346 354.3 423.306 357.336 423.31 359.796 425.77 359.8 428.806 359.762 431.828 357.322 434.27 354.3 434.31Z" fill="#FFFFFF"/><path d="M331.7 472.721C335.842 472.721 339.2 469.363 339.2 465.221 339.2 461.079 335.842 457.721 331.7 457.721 327.558 457.721 324.2 461.079 324.2 465.221 324.195 469.358 327.545 472.716 331.682 472.721 331.688 472.721 331.694 472.721 331.7 472.721ZM331.7 459.716C334.738 459.716 337.2 462.178 337.2 465.216 337.2 468.254 334.738 470.716 331.7 470.716 328.662 470.716 326.2 468.254 326.2 465.216 326.204 462.18 328.664 459.72 331.7 459.716Z" fill="#FFFFFF"/></g></svg>