<svg width="180" height="181" xmlns="http://www.w3.org/2000/svg" xmlns:xlink="http://www.w3.org/1999/xlink" xml:space="preserve" overflow="hidden"><g transform="translate(-290 -157)"><path d="M90 112.5C77.625 112.5 67.5 102.375 67.5 90 67.5 77.625 77.625 67.5 90 67.5 102.375 67.5 112.5 77.625 112.5 90 112.5 102.375 102.375 112.5 90 112.5ZM140.625 75.9375C139.5 71.8125 137.812 67.875 135.75 64.3125L140.438 50.25 129.75 39.5625 115.688 44.25C111.938 42.1875 108 40.5 103.875 39.375L97.5 26.25 82.5 26.25 75.9375 39.375C71.8125 40.5 67.875 42.1875 64.3125 44.25L50.25 39.5625 39.5625 50.25 44.25 64.3125C42.1875 68.0625 40.5 72 39.375 76.125L26.25 82.5 26.25 97.5 39.375 104.062C40.5 108.188 42.1875 112.125 44.25 115.688L39.5625 129.75 50.25 140.438 64.3125 135.75C68.0625 137.812 72 139.5 76.125 140.625L82.6875 153.75 97.6875 153.75 104.25 140.625C108.375 139.5 112.312 137.812 115.875 135.75L129.938 140.438 140.625 129.75 135.938 115.688C138 111.938 139.688 108 140.812 103.875L153.938 97.3125 153.938 82.3125 140.625 75.9375Z" fill="#FFFFFF" transform="matrix(1 0 0 1.00556 290 157)"/></g></svg>