<svg width="428" height="428" xmlns="http://www.w3.org/2000/svg" xmlns:xlink="http://www.w3.org/1999/xlink" xml:space="preserve" overflow="hidden"><g transform="translate(-202 -123)"><path d="M587.534 388.552 539.754 273.215 395.567 332.956 443.347 448.293ZM534.926 284.869 575.88 383.728 448.171 436.621 407.222 337.762Z" fill="#FFFFFF"/><path d="M443.432 465.904C443.208 469.367 442.698 472.806 441.907 476.185L563.62 425.828 560.205 417.589Z" fill="#FFFFFF"/><path d="M396.602 401.414C400.537 402.415 404.365 403.801 408.029 405.551L316.223 188.141 308.01 191.609 321.078 222.55 276.294 241.213C274.007 242.125 272.892 244.718 273.804 247.005 274.716 249.293 277.31 250.407 279.597 249.495 279.639 249.478 279.681 249.461 279.722 249.443L324.546 230.767Z" fill="#FFFFFF"/><path d="M381.225 408.333C351.678 408.333 327.725 432.286 327.725 461.833 327.725 491.381 351.678 515.333 381.225 515.333 410.772 515.333 434.725 491.381 434.725 461.833 434.693 432.299 410.759 408.365 381.225 408.333ZM381.225 506.417C356.603 506.417 336.642 486.456 336.642 461.833 336.642 437.21 356.603 417.25 381.225 417.25 405.847 417.25 425.808 437.21 425.808 461.833 425.781 486.445 405.836 506.389 381.225 506.417Z" fill="#FFFFFF"/><path d="M381.225 439.542C368.914 439.542 358.933 449.522 358.933 461.833 358.933 474.145 368.914 484.125 381.225 484.125 393.536 484.125 403.517 474.145 403.517 461.833 403.502 449.528 393.53 439.556 381.225 439.542ZM381.225 475.208C373.838 475.208 367.85 469.22 367.85 461.833 367.85 454.446 373.838 448.458 381.225 448.458 388.612 448.458 394.6 454.446 394.6 461.833 394.6 469.22 388.612 475.208 381.225 475.208Z" fill="#FFFFFF"/></g></svg>