<svg width="234" height="234" xmlns="http://www.w3.org/2000/svg" xmlns:xlink="http://www.w3.org/1999/xlink" xml:space="preserve" overflow="hidden"><g transform="translate(-592 -174)"><path d="M610.113 330 634.671 312.998 659.229 330 650.729 301.667 671.843 283.307 692.956 301.667 684.457 330 709.015 312.998 733.572 330 725.073 301.667 746.187 283.307 767.3 301.667 758.801 330 783.358 312.998 807.916 330 799.414 301.667 821.14 282.776 792.804 282.776 783.358 254.438 773.913 282.776 718.46 282.776 709.015 254.438 699.569 282.776 644.116 282.776 634.671 254.438 625.226 282.776 596.89 282.776 618.613 301.667ZM773.913 287.648 777.425 287.648 778.537 284.316 783.358 269.855 788.18 284.316 789.289 287.648 808.104 287.648 796.216 297.986 793.842 300.05 794.746 303.066 799.246 318.068 786.132 308.991 783.358 307.07 780.582 308.991 767.468 318.068 771.97 303.066 772.875 300.05 770.501 297.986 758.613 287.648Z" fill="#FFFFFF"/></g></svg>