<svg width="205" height="205" xmlns="http://www.w3.org/2000/svg" xmlns:xlink="http://www.w3.org/1999/xlink" xml:space="preserve" overflow="hidden"><g transform="translate(-592 -203)"><path d="M665.245 320.448 675.089 303.365C672.528 302.098 670.103 300.574 667.85 298.816L657.173 317.33C659.985 318.023 662.697 319.071 665.245 320.448Z" fill="#FFFFFF"/><path d="M705.626 356.75C705.336 354.985 705.186 353.2 705.177 351.411 705.18 350.342 705.237 349.272 705.348 348.208L683.652 348.208C683.763 349.272 683.82 350.342 683.823 351.411 683.814 353.2 683.664 354.985 683.375 356.75Z" fill="#FFFFFF"/><path d="M722.26 321.323C724.709 319.818 727.334 318.621 730.076 317.757L719.121 298.773C716.837 300.552 714.375 302.091 711.776 303.365Z" fill="#FFFFFF"/><path d="M648.589 324.719C633.846 324.719 621.896 336.669 621.896 351.411 621.896 366.154 633.846 378.104 648.589 378.104 663.331 378.104 675.281 366.154 675.281 351.411 675.281 336.669 663.331 324.719 648.589 324.719ZM648.589 335.118C652.728 335.107 656.093 338.453 656.105 342.592 656.117 346.732 652.771 350.097 648.631 350.109 644.492 350.121 641.126 346.774 641.115 342.635 641.115 342.621 641.115 342.607 641.115 342.592 641.126 338.469 644.466 335.13 648.589 335.118ZM663.536 365.142 633.641 365.142 633.641 359.441C633.669 358.271 634.217 357.175 635.135 356.451 637.352 354.859 639.821 353.654 642.439 352.885 644.445 352.302 646.52 351.986 648.61 351.945 650.702 351.958 652.78 352.275 654.781 352.885 657.43 353.573 659.913 354.785 662.084 356.451 663.003 357.175 663.551 358.271 663.579 359.441Z" fill="#FFFFFF"/><path d="M726.531 265.995C726.531 247.715 711.712 232.896 693.432 232.896 675.152 232.896 660.333 247.715 660.333 265.995 660.333 284.275 675.152 299.094 693.432 299.094 711.712 299.094 726.531 284.275 726.531 265.995ZM693.368 245.708C698.498 245.708 702.657 249.867 702.657 254.997 702.657 260.128 698.498 264.286 693.368 264.286 688.238 264.286 684.079 260.128 684.079 254.997 684.091 249.872 688.243 245.72 693.368 245.708ZM711.904 282.95 674.811 282.95 674.811 275.818C674.839 274.362 675.521 272.997 676.669 272.102 679.405 270.128 682.461 268.64 685.702 267.703 688.194 266.976 690.773 266.588 693.368 266.55 695.96 266.554 698.536 266.943 701.013 267.703 704.292 268.556 707.37 270.052 710.067 272.102 711.202 273.005 711.875 274.367 711.904 275.818Z" fill="#FFFFFF"/><path d="M740.411 324.719C725.669 324.719 713.719 336.669 713.719 351.411 713.719 366.154 725.669 378.104 740.411 378.104 755.154 378.104 767.104 366.154 767.104 351.411 767.104 336.669 755.154 324.719 740.411 324.719ZM740.411 335.118C744.551 335.107 747.916 338.453 747.928 342.592 747.94 346.732 744.594 350.097 740.454 350.109 736.315 350.121 732.949 346.774 732.938 342.635 732.938 342.621 732.938 342.607 732.938 342.592 732.949 338.469 736.289 335.13 740.411 335.118ZM755.359 365.142 725.464 365.142 725.464 359.441C725.492 358.271 726.04 357.175 726.958 356.451 729.174 354.859 731.644 353.654 734.261 352.885 736.268 352.302 738.343 351.986 740.433 351.945 742.525 351.958 744.603 352.275 746.604 352.885 749.253 353.573 751.736 354.785 753.907 356.451 754.826 357.175 755.374 358.271 755.402 359.441Z" fill="#FFFFFF"/></g></svg>