<svg width="500" height="500" xmlns="http://www.w3.org/2000/svg" xmlns:xlink="http://www.w3.org/1999/xlink" xml:space="preserve" overflow="hidden"><g transform="translate(-194 -121)"><path d="M678.896 327.771 620.042 229.854 614.833 221 605.979 226.729 566.396 251.208C561.708 253.812 558.062 258.5 556.5 263.708 555.458 267.354 555.458 271.521 557.021 275.167 546.083 278.812 535.146 280.896 523.688 280.896 508.062 280.375 492.438 277.771 477.333 273.083 470.042 271 462.229 269.438 454.417 267.875L453.375 267.875 453.375 267.875C452.854 267.875 452.333 267.875 452.333 267.875L451.292 267.875 450.25 267.875C449.208 267.875 448.688 267.875 447.646 267.875L447.646 267.875C438.792 267.875 429.938 271.521 424.208 278.292L420.042 282.979C413.271 280.375 405.979 278.812 398.688 278.812 397.125 278.812 396.083 278.812 394.521 278.812 391.396 278.812 388.792 279.333 385.667 279.333 378.896 279.854 372.125 280.375 365.354 280.375 353.896 280.896 342.438 278.292 332.021 273.604 332.542 270.479 332.542 267.354 332.021 263.708 330.458 258.5 326.812 253.812 322.125 251.208L283.062 226.729 274.208 221 269 229.854 209.104 327.771 203.896 336.625 212.75 341.833 252.854 366.312C260.146 371 269 370.479 275.771 365.271L309.625 404.854 310.146 405.896 311.188 406.417 311.188 406.417 303.896 414.75C294.521 425.688 295.562 441.833 305.979 451.208L305.979 451.208 305.979 451.208C310.667 455.375 316.396 457.458 322.646 457.458 323.688 457.458 324.729 457.458 325.771 457.458 329.417 456.938 332.542 455.896 335.667 453.813 336.188 460.062 339.312 466.313 344 470.479L344 470.479 344 470.479C348.688 474.646 354.417 476.729 360.667 476.729 361.188 476.729 362.229 476.729 362.75 476.729 365.354 476.729 367.958 476.208 370.562 475.167 371.083 480.896 373.688 486.625 378.375 490.271L378.375 490.271 378.375 490.271C382.542 493.917 387.75 496 392.958 496 394 496 394.521 496 395.562 496 399.208 496 402.333 494.438 405.458 492.875 406.5 496.521 408.583 500.167 411.708 502.771 415.875 506.417 421.083 508.5 426.812 507.979L427.854 507.979 428.896 507.979C432.021 507.458 435.146 505.896 437.75 504.333L438.271 504.854 445.562 510.583 446.083 511.104 446.604 511.625C451.292 514.75 457.021 516.312 462.229 516.312 463.271 516.312 464.313 516.312 465.354 516.312 478.375 515.271 488.792 505.896 492.438 493.396 503.896 491.312 513.271 482.458 516.396 471 528.375 468.396 537.75 459.542 540.354 448.083 540.875 448.083 541.917 448.083 542.438 448.083 559.104 446.521 571.604 431.938 570.562 415.271 570.562 414.229 570.562 412.667 570.562 411.625L574.729 406.417 610.667 364.75C617.438 370.479 626.812 370.479 634.625 365.792L674.729 341.312 683.583 336.104 678.896 327.771ZM258.062 357.458 217.958 332.979 277.333 235.062 316.917 259.542C321.083 261.625 323.167 266.833 321.604 271L318.479 276.208 273.167 351.208 270.042 355.896C268.479 357.458 265.875 358.5 263.271 358.5 261.708 359.021 259.625 358.5 258.062 357.458ZM324.729 447.042C324.208 447.042 323.688 447.042 323.167 447.042 314.833 447.042 308.062 439.75 308.062 431.417 308.062 427.771 309.625 424.125 311.708 421.521L339.312 390.271C342.438 387.146 346.604 385.062 351.292 385.062 354.938 385.062 358.583 386.625 361.188 388.708 367.438 394.438 368.479 404.333 362.75 410.583L335.146 441.833C332.542 444.958 328.896 446.521 324.729 447.042ZM363.271 466.833C362.75 466.833 362.229 466.833 361.708 466.833 353.375 466.833 346.604 459.542 346.604 451.208 346.604 447.562 348.167 443.917 350.25 441.312L374.208 413.708C377.333 410.583 381.5 408.5 386.188 408.5 389.833 408.5 393.479 410.062 396.083 412.146 402.333 417.875 403.375 427.771 397.646 434.021L373.688 461.625C371.083 464.75 367.438 466.833 363.271 466.833L363.271 466.833ZM396.083 486.104C395.562 486.104 395.042 486.104 394.521 486.104 391.396 486.104 388.792 485.063 386.188 482.979 380.979 478.292 380.458 469.958 385.146 464.75L409.104 437.146C411.708 434.542 415.354 432.979 419 432.979 422.125 432.979 425.25 434.021 427.333 436.104 432.542 440.792 433.062 449.125 428.375 454.333L404.417 481.938C402.333 484.542 399.208 486.104 396.083 486.104L396.083 486.104ZM427.854 498.604C425.25 498.604 422.125 498.083 420.042 496 415.875 492.354 415.354 485.583 419 481.417L439.312 457.979C441.396 455.896 444 454.333 447.125 454.333 449.729 454.333 451.812 455.375 453.896 456.938 458.062 460.583 458.583 467.354 454.938 471.521L434.625 494.958C433.062 497.042 430.458 498.083 427.854 498.604L427.854 498.604ZM542.438 437.667C541.917 437.667 540.875 437.667 540.354 437.667 537.229 437.667 534.104 436.625 531.5 435.583 531.5 436.625 532.021 437.667 532.021 438.708 533.062 450.167 524.729 460.062 513.271 461.104 513.271 461.104 513.271 461.104 513.271 461.104 511.708 461.104 509.625 461.104 508.062 460.583L508.062 461.104C509.104 472.562 500.771 482.458 489.312 483.5 489.312 483.5 489.312 483.5 489.312 483.5 487.75 483.5 485.667 483.5 484.104 482.979L484.104 483.5C485.146 494.958 476.812 504.854 465.354 505.896 465.354 505.896 465.354 505.896 465.354 505.896 464.833 505.896 464.313 505.896 463.792 505.896 460.146 505.896 456.5 504.854 452.854 502.771L446.083 497.563 462.75 478.292C470.042 469.438 469 456.417 460.667 449.125 457.021 446 452.333 443.917 447.125 443.917 445.562 443.917 443.479 443.917 441.917 444.438 441.396 438.188 438.792 432.458 434.104 428.292 429.938 424.646 424.208 422.563 418.479 422.563L418.479 422.563C415.875 422.563 413.792 423.083 411.188 423.604 411.188 416.312 408.062 409.542 402.333 404.333 397.646 400.167 391.917 397.562 385.667 398.083L385.667 398.083C382.542 398.083 379.417 398.604 376.292 399.646 375.771 392.354 372.646 385.583 367.438 380.896 362.75 376.729 357.021 374.125 350.771 374.646L350.771 374.646C343.479 374.646 336.188 377.771 330.979 383.5L317.438 399.125 316.917 398.604 281.5 357.458 326.812 282.458C338.271 288.188 351.292 290.792 364.312 290.271 374.729 290.271 385.146 289.229 394.521 288.188 395.562 288.188 396.604 288.188 397.646 288.188 402.333 288.188 407.021 288.708 411.188 290.271L382.542 324.125C376.812 330.375 374.208 338.708 374.729 347.042 375.25 355.375 379.417 362.667 385.667 368.396L385.667 368.396 385.667 368.396C391.396 373.083 398.688 375.688 405.979 375.688 407.021 375.688 407.542 375.688 408.583 375.688 416.917 375.167 424.729 371 429.938 364.75L465.354 324.125 465.354 324.125 471.083 329.333 554.938 401.208C558.583 404.333 560.667 409.542 560.667 414.229 560.667 414.75 560.667 416.312 560.667 416.312 561.708 427.25 553.375 436.625 542.438 437.667 542.438 437.667 542.438 437.667 542.438 437.667ZM567.958 399.646C566.396 397.042 564.312 394.958 562.229 392.875L464.833 309.021 422.125 357.979C418.479 362.146 413.792 364.75 408.062 365.271 407.542 365.271 407.021 365.271 406.5 365.271 401.292 365.271 396.604 363.188 392.438 360.062 383.583 352.771 382.542 340.271 389.833 331.417 389.833 331.417 390.354 330.896 390.354 330.896L431.5 284.021C435.667 279.333 441.396 277.25 447.125 277.25 447.646 277.25 448.167 277.25 449.208 277.25 450.25 277.25 450.771 277.771 451.812 277.771 475.771 282.458 497.646 290.792 523.167 290.792 536.188 290.792 549.208 288.708 561.188 284.021L591.396 332.979 605.458 356.417 567.958 399.646ZM629.938 357.458C628.375 358.5 626.292 359.021 624.729 359.021 622.125 359.021 619.521 357.979 617.438 355.896L614.312 350.688 600.25 327.771 567.438 273.604C564.312 268.917 565.875 263.188 570.042 260.062 570.562 260.062 570.562 259.542 571.083 259.542L611.188 235.062 670.042 332.979 629.938 357.458Z" fill="#FFFFFF"/></g></svg>