<svg width="180" height="179" xmlns="http://www.w3.org/2000/svg" xmlns:xlink="http://www.w3.org/1999/xlink" xml:space="preserve" overflow="hidden"><g transform="translate(-391 -238)"><path d="M89.3135 151.031C60.4125 151.031 37.1052 127.724 37.1052 98.8229 37.1052 69.9219 60.4125 46.6146 89.3135 46.6146 118.215 46.6146 141.522 69.9219 141.522 98.8229L141.522 98.8229C141.708 127.724 118.401 151.031 89.3135 151.031ZM133.504 53.3271 139.098 47.7333C141.149 45.4958 141.149 41.9531 138.911 39.9021 136.674 37.851 133.318 37.6646 131.08 39.7156L124.741 46.2417C115.791 40.275 105.535 36.5458 94.9073 35.8L94.9073 27.9688 111.689 27.9688 111.689 16.7812 66.9385 16.7812 66.9385 27.9688 83.7198 27.9688 83.7198 35.6135C48.6656 38.5969 22.9344 69.549 25.9177 104.417 28.901 139.284 59.8531 165.202 94.7208 162.219 129.589 159.235 155.506 128.283 152.523 93.4156 151.404 78.126 144.505 63.9552 133.504 53.3271Z" fill="#FFFFFF" transform="matrix(1.00559 0 0 1 391 238)"/><path d="M93.0427 98.8229 93.0427 54.2594C91.7375 54.0729 90.6188 54.0729 89.3135 54.0729 88.0083 54.0729 86.8896 54.0729 85.5844 54.2594L85.5844 98.8229 93.0427 98.8229Z" fill="#FFFFFF" transform="matrix(1.00559 0 0 1 391 238)"/></g></svg>