<svg width="96" height="96" xmlns="http://www.w3.org/2000/svg" xmlns:xlink="http://www.w3.org/1999/xlink" xml:space="preserve" overflow="hidden"><g transform="translate(-325 -194)"><path d="M373 205 335 220.6 335 280.024 342 280.024 342 230.01 404 230.01 404 280.024 411 280.024 411 220.6ZM409 278.024 406 278.024 406 228.01 340 228.01 340 278.024 337 278.024 337 221.939 373 207.165 409 221.939Z" fill="#FFFFFF"/><path d="M345 233 401 233 401 235 345 235Z" fill="#FFFFFF"/><path d="M345 238 401 238 401 240 345 240Z" fill="#FFFFFF"/><path d="M345 243 401 243 401 245 345 245Z" fill="#FFFFFF"/><path d="M386 252 373 252 373 265 360 265 360 280 401 280 401 252 386 252ZM375 254 386 254 386 265 375 265ZM373 278 362 278 362 267 373 267ZM386 278 375 278 375 267 386 267ZM399 278 388 278 388 267 399 267ZM399 254 399 265 388 265 388 254Z" fill="#FFFFFF"/><path d="M377 256 380 256 380 258 377 258Z" fill="#FFFFFF"/><path d="M390 256 393 256 393 258 390 258Z" fill="#FFFFFF"/><path d="M377 269 380 269 380 271 377 271Z" fill="#FFFFFF"/><path d="M364 269 367 269 367 271 364 271Z" fill="#FFFFFF"/><path d="M390 269 393 269 393 271 390 271Z" fill="#FFFFFF"/></g></svg>